<svg xmlns="http://www.w3.org/2000/svg" viewBox="0 0 1087 236" role="img" aria-labelledby="title desc">
  <title id="title">SAEP</title>
  <desc id="desc">Servico de Agua e Esgoto de Pirassununga</desc>
  <g fill="#05085C">
    <circle cx="118" cy="118" r="118"/>
    <path d="M22 78c30-14 61-12 93 5 27 14 53 17 78 7 10-4 18-9 24-14v31c-9 6-20 11-34 15-27 8-55 3-85-14-26-14-51-16-76-5V78z" fill="#F8FAFC"/>
    <path d="M24 119c29-12 59-9 89 8 26 15 52 20 79 13 11-3 21-8 29-14v31c-10 6-22 10-35 12-29 5-58-1-86-18-25-15-50-18-76-7v-25z" fill="#F8FAFC"/>
    <path d="M31 165c28-8 55-4 82 12 27 16 55 22 84 16 10-2 18-5 25-9v28c-11 5-24 8-39 8-29 1-57-7-85-24-21-13-43-16-67-10v-21z" fill="#F8FAFC"/>
    <text x="282" y="174" font-family="Arial Black, Arial, Helvetica, sans-serif" font-size="170" font-weight="900">SAEP</text>
    <text x="760" y="94" font-family="Arial, Helvetica, sans-serif" font-size="32" font-weight="700">SERVICO DE</text>
    <text x="760" y="134" font-family="Arial, Helvetica, sans-serif" font-size="32" font-weight="700">AGUA E ESGOTO</text>
    <text x="760" y="174" font-family="Arial, Helvetica, sans-serif" font-size="32" font-weight="700">DE PIRASSUNUNGA</text>
  </g>
</svg>
